{
  "accessors": [
    {
      "bufferView": 2,
      "componentType": 5126,
      "count": 2757,
      "max": [
        0.8499999642372131,
        0.29999998211860657,
        0.25
      ],
      "min": [
        -0.8499999642372131,
        -0.29999998211860657,
        -0.15000000596046448
      ],
      "type": "VEC3"
    },
    {
      "bufferView": 2,
      "byteOffset": 33084,
      "componentType": 5126,
      "count": 2757,
      "max": [
        0.99899822473526,
        0.9998390674591064,
        0.9980988502502441
      ],
      "min": [
        -0.99899822473526,
        -0.9998387098312378,
        -0.9987981915473938
      ],
      "type": "VEC3"
    },
    {
      "bufferView": 3,
      "componentType": 5126,
      "count": 2757,
      "max": [
        0.9883428812026978,
        0.9895322322845459,
        0.9990170001983643,
        1.0
      ],
      "min": [
        -0.9990463852882385,
        -0.99837327003479,
        -0.9999998807907104,
        1.0
      ],
      "type": "VEC4"
    },
    {
      "bufferView": 1,
      "componentType": 5126,
      "count": 2757,
      "max": [
        1.0,
        1.0
      ],
      "min": [
        0.0,
        0.0
      ],
      "type": "VEC2"
    },
    {
      "bufferView": 0,
      "componentType": 5125,
      "count": 13788,
      "type": "SCALAR"
    },
    {
      "bufferView": 2,
      "byteOffset": 66168,
      "componentType": 5126,
      "count": 644,
      "max": [
        0.7400000095367432,
        0.2999992370605469,
        0.025993017479777336
      ],
      "min": [
        -0.7400000095367432,
        -0.30000078678131104,
        -0.01400698721408844
      ],
      "type": "VEC3"
    },
    {
      "bufferView": 2,
      "byteOffset": 73896,
      "componentType": 5126,
      "count": 644,
      "max": [
        1.0,
        1.0,
        0.99904865026474
      ],
      "min": [
        -1.0,
        -1.0,
        -1.0
      ],
      "type": "VEC3"
    },
    {
      "bufferView": 3,
      "byteOffset": 44112,
      "componentType": 5126,
      "count": 644,
      "max": [
        1.0,
        1.0,
        1.0,
        1.0
      ],
      "min": [
        -1.0,
        -1.0,
        -1.0,
        1.0
      ],
      "type": "VEC4"
    },
    {
      "bufferView": 1,
      "byteOffset": 22056,
      "componentType": 5126,
      "count": 644,
      "max": [
        0.801788866519928,
        1.0
      ],
      "min": [
        0.0,
        0.0
      ],
      "type": "VEC2"
    },
    {
      "bufferView": 0,
      "byteOffset": 55152,
      "componentType": 5125,
      "count": 1764,
      "type": "SCALAR"
    },
    {
      "bufferView": 2,
      "byteOffset": 81624,
      "componentType": 5126,
      "count": 72,
      "max": [
        0.5250000357627869,
        0.25,
        0.004999999888241291
      ],
      "min": [
        -0.5249999165534973,
        -0.25,
        -0.004999999888241291
      ],
      "type": "VEC3"
    },
    {
      "bufferView": 2,
      "byteOffset": 82488,
      "componentType": 5126,
      "count": 72,
      "max": [
        1.0,
        1.0,
        1.0
      ],
      "min": [
        -1.0,
        -1.0,
        -1.0
      ],
      "type": "VEC3"
    },
    {
      "bufferView": 3,
      "byteOffset": 54416,
      "componentType": 5126,
      "count": 72,
      "max": [
        1.0,
        5.960463568044361e-06,
        1.0,
        1.0
      ],
      "min": [
        -1.0,
        -5.960470389254624e-06,
        -1.0,
        1.0
      ],
      "type": "VEC4"
    },
    {
      "bufferView": 1,
      "byteOffset": 27208,
      "componentType": 5126,
      "count": 72,
      "max": [
        0.8199890851974487,
        1.0
      ],
      "min": [
        0.0,
        0.0
      ],
      "type": "VEC2"
    },
    {
      "bufferView": 0,
      "byteOffset": 62208,
      "componentType": 5125,
      "count": 108,
      "type": "SCALAR"
    }
  ],
  "asset": {
    "extras": {
      "author": "YouniqueĪdeaStudio (https://sketchfab.com/sinnervoncrawsz)",
      "license": "CC-BY-4.0 (http://creativecommons.org/licenses/by/4.0/)",
      "source": "https://sketchfab.com/3d-models/bench-street-furniture-2eec0b2d47f94db38ea31e8c3d2aab07",
      "title": "Bench -  street furniture"
    },
    "generator": "Sketchfab-12.66.0",
    "version": "2.0"
  },
  "bufferViews": [
    {
      "buffer": 0,
      "byteLength": 62640,
      "name": "floatBufferViews",
      "target": 34963
    },
    {
      "buffer": 0,
      "byteLength": 27784,
      "byteOffset": 62640,
      "byteStride": 8,
      "name": "floatBufferViews",
      "target": 34962
    },
    {
      "buffer": 0,
      "byteLength": 83352,
      "byteOffset": 90424,
      "byteStride": 12,
      "name": "floatBufferViews",
      "target": 34962
    },
    {
      "buffer": 0,
      "byteLength": 55568,
      "byteOffset": 173776,
      "byteStride": 16,
      "name": "floatBufferViews",
      "target": 34962
    }
  ],
  "buffers": [
    {
      "byteLength": 229344,
      "uri": "scene.bin"
    }
  ],
  "images": [
    {
      "uri": "textures/Material.002_baseColor.png"
    },
    {
      "uri": "textures/Material.002_metallicRoughness.png"
    },
    {
      "uri": "textures/Material.002_normal.png"
    },
    {
      "uri": "textures/Material_baseColor.png"
    },
    {
      "uri": "textures/Material_metallicRoughness.png"
    },
    {
      "uri": "textures/Material_normal.png"
    },
    {
      "uri": "textures/Material.001_baseColor.png"
    },
    {
      "uri": "textures/Material.001_metallicRoughness.png"
    },
    {
      "uri": "textures/Material.001_normal.png"
    }
  ],
  "materials": [
    {
      "doubleSided": true,
      "name": "Material.002",
      "normalTexture": {
        "index": 2
      },
      "occlusionTexture": {
        "index": 1
      },
      "pbrMetallicRoughness": {
        "baseColorTexture": {
          "index": 0
        },
        "metallicFactor": 0.0,
        "metallicRoughnessTexture": {
          "index": 1
        }
      }
    },
    {
      "doubleSided": true,
      "name": "Material",
      "normalTexture": {
        "index": 5
      },
      "occlusionTexture": {
        "index": 4
      },
      "pbrMetallicRoughness": {
        "baseColorTexture": {
          "index": 3
        },
        "metallicFactor": 0.0,
        "metallicRoughnessTexture": {
          "index": 4
        }
      }
    },
    {
      "doubleSided": true,
      "name": "Material.001",
      "normalTexture": {
        "index": 8
      },
      "occlusionTexture": {
        "index": 7
      },
      "pbrMetallicRoughness": {
        "baseColorFactor": [
          0.21532462271052438,
          0.21532462271052438,
          0.21532462271052438,
          1.0
        ],
        "baseColorTexture": {
          "index": 6
        },
        "metallicFactor": 0.0,
        "metallicRoughnessTexture": {
          "index": 7
        }
      }
    }
  ],
  "meshes": [
    {
      "name": "concret_Material.002_0",
      "primitives": [
        {
          "attributes": {
            "NORMAL": 1,
            "POSITION": 0,
            "TANGENT": 2,
            "TEXCOORD_0": 3
          },
          "indices": 4,
          "material": 0,
          "mode": 4
        }
      ]
    },
    {
      "name": "wood_Material_0",
      "primitives": [
        {
          "attributes": {
            "NORMAL": 6,
            "POSITION": 5,
            "TANGENT": 7,
            "TEXCOORD_0": 8
          },
          "indices": 9,
          "material": 1,
          "mode": 4
        }
      ]
    },
    {
      "name": "wood2_Material.001_0",
      "primitives": [
        {
          "attributes": {
            "NORMAL": 11,
            "POSITION": 10,
            "TANGENT": 12,
            "TEXCOORD_0": 13
          },
          "indices": 14,
          "material": 2,
          "mode": 4
        }
      ]
    }
  ],
  "nodes": [
    {
      "children": [
        1
      ],
      "matrix": [
        1.1041033267974854,
        0.0,
        0.0,
        0.0,
        0.0,
        2.4516018699516037e-16,
        -1.1041033267974854,
        0.0,
        0.0,
        1.1041033267974854,
        2.4516018699516037e-16,
        0.0,
        0.0,
        0.0,
        0.0,
        1.0
      ],
      "name": "Sketchfab_model"
    },
    {
      "children": [
        2
      ],
      "matrix": [
        0.009999999776482582,
        0.0,
        0.0,
        0.0,
        0.0,
        0.0,
        0.009999999776482582,
        0.0,
        0.0,
        -0.009999999776482582,
        0.0,
        0.0,
        0.0,
        0.0,
        0.0,
        1.0
      ],
      "name": "BENCH.fbx"
    },
    {
      "children": [
        3,
        5,
        7
      ],
      "name": "RootNode"
    },
    {
      "children": [
        4
      ],
      "matrix": [
        100.0,
        0.0,
        0.0,
        0.0,
        0.0,
        -1.629206793918314e-05,
        -99.99999999999868,
        0.0,
        0.0,
        99.99999999999868,
        -1.629206793918314e-05,
        0.0,
        0.0,
        0.0,
        0.0,
        1.0
      ],
      "name": "concret"
    },
    {
      "mesh": 0,
      "name": "concret_Material.002_0"
    },
    {
      "children": [
        6
      ],
      "matrix": [
        100.0,
        0.0,
        0.0,
        0.0,
        -0.0,
        -1.629206793918314e-05,
        -99.99999999999868,
        0.0,
        0.0,
        99.99999999999868,
        -1.629206793918314e-05,
        0.0,
        -2.6313102807762334e-07,
        22.40070152282715,
        -7.152557373046875e-05,
        1.0
      ],
      "name": "wood"
    },
    {
      "mesh": 1,
      "name": "wood_Material_0"
    },
    {
      "children": [
        8
      ],
      "matrix": [
        100.0,
        0.0,
        0.0,
        0.0,
        -0.0,
        -1.629206793918314e-05,
        -99.99999999999868,
        0.0,
        0.0,
        99.99999999999868,
        -1.629206793918314e-05,
        0.0,
        -5.9604644775390625e-06,
        20.500003814697266,
        0.0,
        1.0
      ],
      "name": "wood2"
    },
    {
      "mesh": 2,
      "name": "wood2_Material.001_0"
    }
  ],
  "samplers": [
    {
      "magFilter": 9729,
      "minFilter": 9987,
      "wrapS": 10497,
      "wrapT": 10497
    }
  ],
  "scene": 0,
  "scenes": [
    {
      "name": "Sketchfab_Scene",
      "nodes": [
        0
      ]
    }
  ],
  "textures": [
    {
      "sampler": 0,
      "source": 0
    },
    {
      "sampler": 0,
      "source": 1
    },
    {
      "sampler": 0,
      "source": 2
    },
    {
      "sampler": 0,
      "source": 3
    },
    {
      "sampler": 0,
      "source": 4
    },
    {
      "sampler": 0,
      "source": 5
    },
    {
      "sampler": 0,
      "source": 6
    },
    {
      "sampler": 0,
      "source": 7
    },
    {
      "sampler": 0,
      "source": 8
    }
  ]
}
