{
    "asset" : {
        "generator" : "Khronos glTF Blender I/O v1.8.19",
        "version" : "2.0"
    },
    "scene" : 0,
    "scenes" : [
        {
            "name" : "Scene",
            "nodes" : [
                0
            ]
        }
    ],
    "nodes" : [
        {
            "mesh" : 0,
            "name" : "\u704c\u6728\u681102"
        }
    ],
    "materials" : [
        {
            "alphaCutoff" : 0.5,
            "alphaMode" : "MASK",
            "doubleSided" : true,
            "name" : "AM113_079_shrubs",
            "pbrMetallicRoughness" : {
                "baseColorTexture" : {
                    "index" : 0
                },
                "metallicFactor" : 0,
                "roughnessFactor" : 0.8385826349258423
            }
        }
    ],
    "meshes" : [
        {
            "name" : "AM113_079_shrubs",
            "primitives" : [
                {
                    "attributes" : {
                        "POSITION" : 0,
                        "NORMAL" : 1,
                        "TEXCOORD_0" : 2
                    },
                    "indices" : 3,
                    "material" : 0
                }
            ]
        }
    ],
    "textures" : [
        {
            "sampler" : 0,
            "source" : 0
        }
    ],
    "images" : [
        {
            "bufferView" : 4,
            "mimeType" : "image/png",
            "name" : "Image_0"
        }
    ],
    "accessors" : [
        {
            "bufferView" : 0,
            "componentType" : 5126,
            "count" : 1934,
            "max" : [
                0.9850280284881592,
                1.5376009941101074,
                0.9597809910774231
            ],
            "min" : [
                -1.0738379955291748,
                -0.030007001012563705,
                -1.0256630182266235
            ],
            "type" : "VEC3"
        },
        {
            "bufferView" : 1,
            "componentType" : 5126,
            "count" : 1934,
            "type" : "VEC3"
        },
        {
            "bufferView" : 2,
            "componentType" : 5126,
            "count" : 1934,
            "type" : "VEC2"
        },
        {
            "bufferView" : 3,
            "componentType" : 5123,
            "count" : 7641,
            "type" : "SCALAR"
        }
    ],
    "bufferViews" : [
        {
            "buffer" : 0,
            "byteLength" : 23208,
            "byteOffset" : 0
        },
        {
            "buffer" : 0,
            "byteLength" : 23208,
            "byteOffset" : 23208
        },
        {
            "buffer" : 0,
            "byteLength" : 15472,
            "byteOffset" : 46416
        },
        {
            "buffer" : 0,
            "byteLength" : 15282,
            "byteOffset" : 61888
        },
        {
            "buffer" : 0,
            "byteLength" : 528318,
            "byteOffset" : 77172
        }
    ],
    "samplers" : [
        {
            "magFilter" : 9729,
            "minFilter" : 9987
        }
    ],
    "buffers" : [
        {
            "byteLength" : 605492,
            "uri" : "data:application/octet-stream;base64,"
        }
    ]
}
