{
  "accessors": [
    {
      "bufferView": 2,
      "componentType": 5126,
      "count": 76,
      "max": [
        25.0,
        200.0,
        200.0
      ],
      "min": [
        -25.0,
        0.0,
        -200.0
      ],
      "type": "VEC3"
    },
    {
      "bufferView": 2,
      "byteOffset": 912,
      "componentType": 5126,
      "count": 76,
      "max": [
        0.9807854294776917,
        0.9672885537147522,
        0.9807852506637573
      ],
      "min": [
        -0.9807854294776917,
        -1.0,
        -0.9807852506637573
      ],
      "type": "VEC3"
    },
    {
      "bufferView": 3,
      "componentType": 5126,
      "count": 76,
      "max": [
        0.9874273538589478,
        0.699393093585968,
        0.7050144076347351,
        1.0
      ],
      "min": [
        -1.0,
        -1.0,
        -0.7050146460533142,
        1.0
      ],
      "type": "VEC4"
    },
    {
      "bufferView": 1,
      "componentType": 5126,
      "count": 76,
      "max": [
        1.0,
        1.0
      ],
      "min": [
        0.0,
        0.0
      ],
      "type": "VEC2"
    },
    {
      "bufferView": 1,
      "byteOffset": 608,
      "componentType": 5126,
      "count": 76,
      "max": [
        1.0,
        1.0
      ],
      "min": [
        0.0,
        0.0
      ],
      "type": "VEC2"
    },
    {
      "bufferView": 0,
      "componentType": 5125,
      "count": 228,
      "type": "SCALAR"
    },
    {
      "bufferView": 2,
      "byteOffset": 1824,
      "componentType": 5126,
      "count": 7296,
      "max": [
        50,
        1,
        250.67991638183594
      ],
      "min": [
        -400,
        -1,
        -95.42355346679688
      ],
      "type": "VEC3"
    },
    {
      "bufferView": 2,
      "byteOffset": 89376,
      "componentType": 5126,
      "count": 7296,
      "max": [
        0.9984200596809387,
        1.0,
        0.9975677132606506
      ],
      "min": [
        -1.0,
        -0.9975977540016174,
        -0.9964805245399475
      ],
      "type": "VEC3"
    },
    {
      "bufferView": 3,
      "byteOffset": 1216,
      "componentType": 5126,
      "count": 7296,
      "max": [
        0.9926832914352417,
        0.999747633934021,
        1.0,
        1.0
      ],
      "min": [
        -0.9928146004676819,
        -0.993781566619873,
        -0.9956355690956116,
        1.0
      ],
      "type": "VEC4"
    },
    {
      "bufferView": 1,
      "byteOffset": 1216,
      "componentType": 5126,
      "count": 7296,
      "max": [
        0.75,
        0.9992939233779907
      ],
      "min": [
        0.25070610642433167,
        0.0007061141077429056
      ],
      "type": "VEC2"
    },
    {
      "bufferView": 1,
      "byteOffset": 59584,
      "componentType": 5126,
      "count": 7296,
      "max": [
        0.75,
        0.9992939233779907
      ],
      "min": [
        0.25070610642433167,
        0.0007061141077429056
      ],
      "type": "VEC2"
    },
    {
      "bufferView": 0,
      "byteOffset": 912,
      "componentType": 5125,
      "count": 7308,
      "type": "SCALAR"
    }
  ],
  "asset": {
    "extras": {
      "author": "shortpaca (https://sketchfab.com/shortpaca)",
      "license": "CC-BY-NC-4.0 (http://creativecommons.org/licenses/by-nc/4.0/)",
      "source": "https://sketchfab.com/3d-models/boxwood-f0efd57011404e1b9ff14e89f7ecb305",
      "title": "Boxwood"
    },
    "generator": "Sketchfab-15.30.0",
    "version": "2.0"
  },
  "bufferViews": [
    {
      "buffer": 0,
      "byteLength": 30144,
      "name": "floatBufferViews",
      "target": 34963
    },
    {
      "buffer": 0,
      "byteLength": 117952,
      "byteOffset": 30144,
      "byteStride": 8,
      "name": "floatBufferViews",
      "target": 34962
    },
    {
      "buffer": 0,
      "byteLength": 176928,
      "byteOffset": 148096,
      "byteStride": 12,
      "name": "floatBufferViews",
      "target": 34962
    },
    {
      "buffer": 0,
      "byteLength": 117952,
      "byteOffset": 325024,
      "byteStride": 16,
      "name": "floatBufferViews",
      "target": 34962
    }
  ],
  "buffers": [
    {
      "byteLength": 442976,
      "uri": "scene.bin"
    }
  ],
  "images": [
    {
      "uri": "textures/Boxwood_baseColor.png"
    },
    {
      "uri": "textures/Boxwood_normal.png"
    },
    {
      "uri": "textures/Branch_baseColor.png"
    },
    {
      "uri": "textures/Branch_normal.png"
    }
  ],
  "materials": [
    {
      "doubleSided": true,
      "name": "Boxwood",
      "normalTexture": {
        "index": 1
      },
      "pbrMetallicRoughness": {
        "baseColorTexture": {
          "index": 0
        },
        "metallicFactor": 0.0,
        "roughnessFactor": 0.5
      }
    },
    {
      "alphaMode": "MASK",
      "doubleSided": true,
      "name": "Branch",
      "normalTexture": {
        "index": 3
      },
      "pbrMetallicRoughness": {
        "baseColorTexture": {
          "index": 2
        },
        "metallicFactor": 0.0,
        "roughnessFactor": 0.5
      }
    }
  ],
  "meshes": [
    {
      "name": "Boxwood_Boxwood_0",
      "primitives": [
        {
          "attributes": {
            "NORMAL": 1,
            "POSITION": 0,
            "TANGENT": 2,
            "TEXCOORD_0": 3,
            "TEXCOORD_1": 4
          },
          "indices": 5,
          "material": 0,
          "mode": 4
        }
      ]
    },
    {
      "name": "Branch_Branch_0",
      "primitives": [
        {
          "attributes": {
            "NORMAL": 7,
            "POSITION": 6,
            "TANGENT": 8,
            "TEXCOORD_0": 9,
            "TEXCOORD_1": 10
          },
          "indices": 11,
          "material": 1,
          "mode": 4
        }
      ]
    }
  ],
  "nodes": [
    {
      "children": [
        1
      ],
      "matrix": [
        1.0,
        0.0,
        0.0,
        0.0,
        0.0,
        2.220446049250313e-16,
        -1.0,
        0.0,
        0.0,
        1.0,
        2.220446049250313e-16,
        0.0,
        0.0,
        0.0,
        0.0,
        1.0
      ],
      "name": "Sketchfab_model"
    },
    {
      "children": [
        2
      ],
      "matrix": [
        0.009999999776482582,
        0.0,
        0.0,
        0.0,
        0.0,
        0.0,
        0.009999999776482582,
        0.0,
        0.0,
        -0.009999999776482582,
        0.0,
        0.0,
        0.0,
        0.0,
        0.0,
        1.0
      ],
      "name": "Boxwood.fbx"
    },
    {
      "children": [
        3,
        5
      ],
      "name": "RootNode"
    },
    {
      "children": [
        4
      ],
      "name": "Boxwood"
    },
    {
      "mesh": 0,
      "name": "Boxwood_Boxwood_0"
    },
    {
      "children": [
        6
      ],
      "matrix": [
        -0.22412040263896377,
        0.07434882699377801,
        0.7643573907222034,
        0.0,
        -0.767263913142936,
        0.012334616057820304,
        -0.2261724207519166,
        0.0,
        -0.03280464080789975,
        -0.7964422276237053,
        0.0678509251239642,
        0.0,
        -18.745386123657227,
        200.0,
        194.07875061035156,
        1.0
      ],
      "name": "Branch"
    },
    {
      "mesh": 1,
      "name": "Branch_Branch_0"
    }
  ],
  "samplers": [
    {
      "magFilter": 9729,
      "minFilter": 9987,
      "wrapS": 10497,
      "wrapT": 10497
    }
  ],
  "scene": 0,
  "scenes": [
    {
      "name": "Sketchfab_Scene",
      "nodes": [
        0
      ]
    }
  ],
  "textures": [
    {
      "sampler": 0,
      "source": 0
    },
    {
      "sampler": 0,
      "source": 1
    },
    {
      "sampler": 0,
      "source": 2
    },
    {
      "sampler": 0,
      "source": 3
    }
  ]
}
