{
  "accessors": [
    {
      "bufferView": 2,
      "componentType": 5126,
      "count": 108,
      "max": [
        0.10000002384185791,
        0.2791197896003723,
        5.346277236938477
      ],
      "min": [
        -0.1672196239233017,
        -0.10000002384185791,
        0.004391822963953018
      ],
      "type": "VEC3"
    },
    {
      "bufferView": 2,
      "byteOffset": 1296,
      "componentType": 5126,
      "count": 108,
      "max": [
        0.9999154210090637,
        0.9989067316055298,
        0.8747818470001221
      ],
      "min": [
        -0.9998793005943298,
        -0.9991152286529541,
        -0.9849572777748108
      ],
      "type": "VEC3"
    },
    {
      "bufferView": 1,
      "componentType": 5126,
      "count": 108,
      "max": [
        0.0,
        0.0
      ],
      "min": [
        0.0,
        0.0
      ],
      "type": "VEC2"
    },
    {
      "bufferView": 0,
      "componentType": 5125,
      "count": 492,
      "type": "SCALAR"
    },
    {
      "bufferView": 2,
      "byteOffset": 2592,
      "componentType": 5126,
      "count": 29,
      "max": [
        0.17521022260189056,
        1.098375916481018,
        4.040282249450684
      ],
      "min": [
        -0.544406533241272,
        0.029847145080566406,
        0.09224334359169006
      ],
      "type": "VEC3"
    },
    {
      "bufferView": 2,
      "byteOffset": 2940,
      "componentType": 5126,
      "count": 29,
      "max": [
        0.5325653553009033,
        -0.464651882648468,
        0.38588598370552063
      ],
      "min": [
        -0.8824710845947266,
        -0.9824850559234619,
        -0.013370581902563572
      ],
      "type": "VEC3"
    },
    {
      "bufferView": 1,
      "byteOffset": 864,
      "componentType": 5126,
      "count": 29,
      "max": [
        1.0000004768371582,
        1.0
      ],
      "min": [
        -7789.998046875,
        -56.74998474121094
      ],
      "type": "VEC2"
    },
    {
      "bufferView": 0,
      "byteOffset": 1968,
      "componentType": 5125,
      "count": 72,
      "type": "SCALAR"
    },
    {
      "bufferView": 2,
      "byteOffset": 3288,
      "componentType": 5126,
      "count": 28,
      "max": [
        0.14567573368549347,
        0.4354749321937561,
        3.903444766998291
      ],
      "min": [
        -0.5456869602203369,
        -0.15999369323253632,
        0.47353315353393555
      ],
      "type": "VEC3"
    },
    {
      "bufferView": 2,
      "byteOffset": 3624,
      "componentType": 5126,
      "count": 28,
      "max": [
        0.9931498765945435,
        -0.04125632718205452,
        0.41132792830467224
      ],
      "min": [
        -0.16422471404075623,
        -0.9989849925041199,
        -0.003954524174332619
      ],
      "type": "VEC3"
    },
    {
      "bufferView": 1,
      "byteOffset": 1096,
      "componentType": 5126,
      "count": 28,
      "max": [
        1.0000004768371582,
        1.0
      ],
      "min": [
        -7789.998046875,
        -56.74998474121094
      ],
      "type": "VEC2"
    },
    {
      "bufferView": 0,
      "byteOffset": 2256,
      "componentType": 5125,
      "count": 72,
      "type": "SCALAR"
    },
    {
      "bufferView": 2,
      "byteOffset": 3960,
      "componentType": 5126,
      "count": 61,
      "max": [
        0.47223228216171265,
        0.19186949729919434,
        0.6762818694114685
      ],
      "min": [
        0.007884562015533447,
        -0.3575610816478729,
        -0.2923663258552551
      ],
      "type": "VEC3"
    },
    {
      "bufferView": 2,
      "byteOffset": 4692,
      "componentType": 5126,
      "count": 61,
      "max": [
        -0.1311396211385727,
        0.8701335191726685,
        0.7972790002822876
      ],
      "min": [
        -0.9831275939941406,
        -0.7772027254104614,
        -0.8942570686340332
      ],
      "type": "VEC3"
    },
    {
      "bufferView": 1,
      "byteOffset": 1320,
      "componentType": 5126,
      "count": 61,
      "max": [
        1.0,
        1.0
      ],
      "min": [
        0.1017274260520935,
        0.0
      ],
      "type": "VEC2"
    },
    {
      "bufferView": 0,
      "byteOffset": 2544,
      "componentType": 5125,
      "count": 282,
      "type": "SCALAR"
    },
    {
      "bufferView": 2,
      "byteOffset": 5424,
      "componentType": 5126,
      "count": 61,
      "max": [
        0.44689494371414185,
        0.20110665261745453,
        0.7536985874176025
      ],
      "min": [
        0.007884562015533447,
        -0.37742409110069275,
        -0.2923663258552551
      ],
      "type": "VEC3"
    },
    {
      "bufferView": 2,
      "byteOffset": 6156,
      "componentType": 5126,
      "count": 61,
      "max": [
        -0.07519955933094025,
        0.8770924806594849,
        0.8130908012390137
      ],
      "min": [
        -0.9801110625267029,
        -0.7772027254104614,
        -0.8990997076034546
      ],
      "type": "VEC3"
    },
    {
      "bufferView": 1,
      "byteOffset": 1808,
      "componentType": 5126,
      "count": 61,
      "max": [
        1.0,
        1.0
      ],
      "min": [
        0.1017274260520935,
        0.0
      ],
      "type": "VEC2"
    },
    {
      "bufferView": 0,
      "byteOffset": 3672,
      "componentType": 5125,
      "count": 282,
      "type": "SCALAR"
    },
    {
      "bufferView": 2,
      "byteOffset": 6888,
      "componentType": 5126,
      "count": 61,
      "max": [
        0.44906845688819885,
        0.1894010603427887,
        0.7705088257789612
      ],
      "min": [
        0.00788453221321106,
        -0.4119837284088135,
        -0.2923663258552551
      ],
      "type": "VEC3"
    },
    {
      "bufferView": 2,
      "byteOffset": 7620,
      "componentType": 5126,
      "count": 61,
      "max": [
        -0.060550425201654434,
        0.8710747957229614,
        0.8132615685462952
      ],
      "min": [
        -0.9787731170654297,
        -0.7772027254104614,
        -0.8978394865989685
      ],
      "type": "VEC3"
    },
    {
      "bufferView": 1,
      "byteOffset": 2296,
      "componentType": 5126,
      "count": 61,
      "max": [
        1.0,
        1.0
      ],
      "min": [
        0.1017274260520935,
        0.0
      ],
      "type": "VEC2"
    },
    {
      "bufferView": 0,
      "byteOffset": 4800,
      "componentType": 5125,
      "count": 282,
      "type": "SCALAR"
    },
    {
      "bufferView": 2,
      "byteOffset": 8352,
      "componentType": 5126,
      "count": 61,
      "max": [
        0.44543468952178955,
        0.19600538909435272,
        0.7699153423309326
      ],
      "min": [
        0.007884562015533447,
        -0.38956189155578613,
        -0.29236626625061035
      ],
      "type": "VEC3"
    },
    {
      "bufferView": 2,
      "byteOffset": 9084,
      "componentType": 5126,
      "count": 61,
      "max": [
        -0.25489693880081177,
        0.8324683308601379,
        0.8249401450157166
      ],
      "min": [
        -0.9801607131958008,
        -0.7772027254104614,
        -0.8869266510009766
      ],
      "type": "VEC3"
    },
    {
      "bufferView": 1,
      "byteOffset": 2784,
      "componentType": 5126,
      "count": 61,
      "max": [
        1.0,
        1.0
      ],
      "min": [
        0.1017274260520935,
        0.0
      ],
      "type": "VEC2"
    },
    {
      "bufferView": 0,
      "byteOffset": 5928,
      "componentType": 5125,
      "count": 282,
      "type": "SCALAR"
    },
    {
      "bufferView": 2,
      "byteOffset": 9816,
      "componentType": 5126,
      "count": 61,
      "max": [
        0.5196691155433655,
        0.19124987721443176,
        0.7237544655799866
      ],
      "min": [
        0.010451899841427803,
        -0.4532279074192047,
        -0.29275232553482056
      ],
      "type": "VEC3"
    },
    {
      "bufferView": 2,
      "byteOffset": 10548,
      "componentType": 5126,
      "count": 61,
      "max": [
        -0.12305180728435516,
        0.8445320129394531,
        0.8852016925811768
      ],
      "min": [
        -0.9971384406089783,
        -0.7756989598274231,
        -0.9120868444442749
      ],
      "type": "VEC3"
    },
    {
      "bufferView": 1,
      "byteOffset": 3272,
      "componentType": 5126,
      "count": 61,
      "max": [
        1.0,
        1.0
      ],
      "min": [
        0.1017274260520935,
        0.0
      ],
      "type": "VEC2"
    },
    {
      "bufferView": 0,
      "byteOffset": 7056,
      "componentType": 5125,
      "count": 282,
      "type": "SCALAR"
    },
    {
      "bufferView": 2,
      "byteOffset": 11280,
      "componentType": 5126,
      "count": 61,
      "max": [
        0.4648497700691223,
        0.19090114533901215,
        0.7277790307998657
      ],
      "min": [
        0.007884562015533447,
        -0.40022504329681396,
        -0.2923663258552551
      ],
      "type": "VEC3"
    },
    {
      "bufferView": 2,
      "byteOffset": 12012,
      "componentType": 5126,
      "count": 61,
      "max": [
        -0.07675598561763763,
        0.8782932758331299,
        0.8249401450157166
      ],
      "min": [
        -0.9830687642097473,
        -0.7772027254104614,
        -0.8990997076034546
      ],
      "type": "VEC3"
    },
    {
      "bufferView": 1,
      "byteOffset": 3760,
      "componentType": 5126,
      "count": 61,
      "max": [
        1.0,
        1.0
      ],
      "min": [
        0.1017274260520935,
        0.0
      ],
      "type": "VEC2"
    },
    {
      "bufferView": 0,
      "byteOffset": 8184,
      "componentType": 5125,
      "count": 282,
      "type": "SCALAR"
    },
    {
      "bufferView": 2,
      "byteOffset": 12744,
      "componentType": 5126,
      "count": 61,
      "max": [
        0.48279711604118347,
        0.18961000442504883,
        0.7263416647911072
      ],
      "min": [
        0.008231021463871002,
        -0.40127089619636536,
        -0.29244309663772583
      ],
      "type": "VEC3"
    },
    {
      "bufferView": 2,
      "byteOffset": 13476,
      "componentType": 5126,
      "count": 61,
      "max": [
        -0.07861661165952682,
        0.8795849680900574,
        0.84303218126297
      ],
      "min": [
        -0.9796174764633179,
        -0.778968095779419,
        -0.8992846608161926
      ],
      "type": "VEC3"
    },
    {
      "bufferView": 1,
      "byteOffset": 4248,
      "componentType": 5126,
      "count": 61,
      "max": [
        1.0,
        1.0
      ],
      "min": [
        0.1017274260520935,
        0.0
      ],
      "type": "VEC2"
    },
    {
      "bufferView": 0,
      "byteOffset": 9312,
      "componentType": 5125,
      "count": 282,
      "type": "SCALAR"
    }
  ],
  "asset": {
    "extras": {
      "author": "Whiskey Dog (https://sketchfab.com/WhiskeyDogg)",
      "license": "CC-BY-4.0 (http://creativecommons.org/licenses/by/4.0/)",
      "source": "https://sketchfab.com/3d-models/tulip-5908b2665e58414a8dbc70e20c7ee021",
      "title": "tulip"
    },
    "generator": "Sketchfab-12.66.0",
    "version": "2.0"
  },
  "bufferViews": [
    {
      "buffer": 0,
      "byteLength": 10440,
      "name": "floatBufferViews",
      "target": 34963
    },
    {
      "buffer": 0,
      "byteLength": 4736,
      "byteOffset": 10440,
      "byteStride": 8,
      "name": "floatBufferViews",
      "target": 34962
    },
    {
      "buffer": 0,
      "byteLength": 14208,
      "byteOffset": 15176,
      "byteStride": 12,
      "name": "floatBufferViews",
      "target": 34962
    }
  ],
  "buffers": [
    {
      "byteLength": 29384,
      "uri": "scene.bin"
    }
  ],
  "materials": [
    {
      "doubleSided": true,
      "name": "Plane__0",
      "pbrMetallicRoughness": {
        "baseColorFactor": [
          0.015364624980761533,
          0.3052835848314484,
          0.025791985614432154,
          1.0
        ],
        "metallicFactor": 0.0,
        "roughnessFactor": 0.6
      }
    },
    {
      "doubleSided": true,
      "name": "plant_matter",
      "pbrMetallicRoughness": {
        "baseColorFactor": [
          0.12601561663299912,
          0.27592356247286554,
          0.0712215781241918,
          1.0
        ],
        "metallicFactor": 0.0,
        "roughnessFactor": 0.8211145618000169
      }
    },
    {
      "doubleSided": true,
      "name": "petals",
      "pbrMetallicRoughness": {
        "baseColorFactor": [
          0.8014945267390894,
          0.4513918754394605,
          0.6134274564453398,
          1.0
        ],
        "metallicFactor": 0.0,
        "roughnessFactor": 0.8211145618000169
      }
    }
  ],
  "meshes": [
    {
      "name": "Circle_plant matter_0",
      "primitives": [
        {
          "attributes": {
            "NORMAL": 1,
            "POSITION": 0,
            "TEXCOORD_0": 2
          },
          "indices": 3,
          "material": 1,
          "mode": 4
        }
      ]
    },
    {
      "name": "Plane__0",
      "primitives": [
        {
          "attributes": {
            "NORMAL": 5,
            "POSITION": 4,
            "TEXCOORD_0": 6
          },
          "indices": 7,
          "material": 0,
          "mode": 4
        }
      ]
    },
    {
      "name": "Plane.001__0",
      "primitives": [
        {
          "attributes": {
            "NORMAL": 9,
            "POSITION": 8,
            "TEXCOORD_0": 10
          },
          "indices": 11,
          "material": 0,
          "mode": 4
        }
      ]
    },
    {
      "name": "Plane.003_petals_0",
      "primitives": [
        {
          "attributes": {
            "NORMAL": 13,
            "POSITION": 12,
            "TEXCOORD_0": 14
          },
          "indices": 15,
          "material": 2,
          "mode": 4
        }
      ]
    },
    {
      "name": "Plane.002_petals_0",
      "primitives": [
        {
          "attributes": {
            "NORMAL": 17,
            "POSITION": 16,
            "TEXCOORD_0": 18
          },
          "indices": 19,
          "material": 2,
          "mode": 4
        }
      ]
    },
    {
      "name": "Plane.004_petals_0",
      "primitives": [
        {
          "attributes": {
            "NORMAL": 21,
            "POSITION": 20,
            "TEXCOORD_0": 22
          },
          "indices": 23,
          "material": 2,
          "mode": 4
        }
      ]
    },
    {
      "name": "Plane.005_petals_0",
      "primitives": [
        {
          "attributes": {
            "NORMAL": 25,
            "POSITION": 24,
            "TEXCOORD_0": 26
          },
          "indices": 27,
          "material": 2,
          "mode": 4
        }
      ]
    },
    {
      "name": "Plane.006_petals_0",
      "primitives": [
        {
          "attributes": {
            "NORMAL": 29,
            "POSITION": 28,
            "TEXCOORD_0": 30
          },
          "indices": 31,
          "material": 2,
          "mode": 4
        }
      ]
    },
    {
      "name": "Plane.007_petals_0",
      "primitives": [
        {
          "attributes": {
            "NORMAL": 33,
            "POSITION": 32,
            "TEXCOORD_0": 34
          },
          "indices": 35,
          "material": 2,
          "mode": 4
        }
      ]
    },
    {
      "name": "Plane.008_petals_0",
      "primitives": [
        {
          "attributes": {
            "NORMAL": 37,
            "POSITION": 36,
            "TEXCOORD_0": 38
          },
          "indices": 39,
          "material": 2,
          "mode": 4
        }
      ]
    }
  ],
  "nodes": [
    {
      "children": [
        1
      ],
      "matrix": [
        1.0,
        0.0,
        0.0,
        0.0,
        0.0,
        2.220446049250313e-16,
        -1.0,
        0.0,
        0.0,
        1.0,
        2.220446049250313e-16,
        0.0,
        0.0,
        0.0,
        0.0,
        1.0
      ],
      "name": "Sketchfab_model"
    },
    {
      "children": [
        2
      ],
      "matrix": [
        1.0,
        0.0,
        0.0,
        0.0,
        0.0,
        0.0,
        1.0,
        0.0,
        0.0,
        -1.0,
        0.0,
        0.0,
        0.0,
        0.0,
        0.0,
        1.0
      ],
      "name": "bb56804f0ef24d8cb14b21cc7aed00c0.fbx"
    },
    {
      "children": [
        3,
        5,
        7,
        9,
        11,
        13,
        15,
        17,
        19,
        21
      ],
      "name": "RootNode"
    },
    {
      "children": [
        4
      ],
      "matrix": [
        100.0,
        0.0,
        0.0,
        0.0,
        0.0,
        -1.629206793918314e-05,
        -99.99999999999868,
        0.0,
        0.0,
        99.99999999999868,
        -1.629206793918314e-05,
        0.0,
        0.0,
        0.0,
        0.0,
        1.0
      ],
      "name": "Circle"
    },
    {
      "mesh": 0,
      "name": "Circle_plant matter_0"
    },
    {
      "children": [
        6
      ],
      "matrix": [
        100.0,
        0.0,
        0.0,
        0.0,
        0.0,
        -1.629206793918314e-05,
        -99.99999999999868,
        0.0,
        0.0,
        99.99999999999868,
        -1.629206793918314e-05,
        0.0,
        0.0,
        0.0,
        0.0,
        1.0
      ],
      "name": "Plane"
    },
    {
      "mesh": 1,
      "name": "Plane__0"
    },
    {
      "children": [
        8
      ],
      "matrix": [
        -67.40767853005015,
        3.4028112481536594e-06,
        -73.86613839282765,
        0.0,
        -73.86613839282697,
        1.1278631756385786e-05,
        67.40767853005005,
        0.0,
        1.0624844193340977e-05,
        99.99999999999932,
        -5.089137777858355e-06,
        0.0,
        0.0,
        0.0,
        0.0,
        1.0
      ],
      "name": "Plane.001"
    },
    {
      "mesh": 2,
      "name": "Plane.001__0"
    },
    {
      "children": [
        10
      ],
      "matrix": [
        117.22359466552734,
        0.0,
        0.0,
        0.0,
        0.0,
        -1.9098147683660378e-05,
        -117.2235946655258,
        0.0,
        0.0,
        117.2235946655258,
        -1.9098147683660378e-05,
        0.0,
        0.17396527528762817,
        530.3624877929688,
        0.1375569999217987,
        1.0
      ],
      "name": "Plane.003"
    },
    {
      "mesh": 3,
      "name": "Plane.003_petals_0"
    },
    {
      "children": [
        12
      ],
      "matrix": [
        23.198482620188706,
        -14.521872008705694,
        95.00721513406418,
        0.0,
        95.1535844713725,
        -10.288109805892795,
        -24.806762161113546,
        0.0,
        13.52963622633531,
        97.25582409311765,
        11.561959764606208,
        0.0,
        -3.278625726699829,
        530.5333251953125,
        -1.1774355173110962,
        1.0
      ],
      "name": "Plane.002"
    },
    {
      "mesh": 4,
      "name": "Plane.002_petals_0"
    },
    {
      "children": [
        14
      ],
      "matrix": [
        -62.734833535860666,
        -12.210570989743038,
        75.4365257420241,
        0.0,
        75.74910498169665,
        -22.825087063428448,
        59.30018782784528,
        0.0,
        10.091519588308024,
        95.42191880959336,
        23.837867629906658,
        0.0,
        -3.278625726699829,
        530.5333251953125,
        -1.1774355173110962,
        1.0
      ],
      "name": "Plane.004"
    },
    {
      "mesh": 5,
      "name": "Plane.004_petals_0"
    },
    {
      "children": [
        16
      ],
      "matrix": [
        -95.29006302851388,
        5.163561127787781,
        -44.10508964394063,
        0.0,
        -43.71741409085624,
        -29.229257980865718,
        91.0304936747553,
        0.0,
        -7.791544148483593,
        100.85188978937191,
        28.6409491733645,
        0.0,
        -3.278625726699829,
        530.5333251953125,
        -1.1774355173110962,
        1.0
      ],
      "name": "Plane.005"
    },
    {
      "mesh": 6,
      "name": "Plane.005_petals_0"
    },
    {
      "children": [
        18
      ],
      "matrix": [
        -16.64268371810506,
        14.349768155826261,
        -102.80672468536167,
        0.0,
        -102.5711684028001,
        -18.268463637323176,
        14.054637972250273,
        0.0,
        -15.946499461604095,
        102.53031113443978,
        16.892657031818,
        0.0,
        -3.278625726699829,
        530.5333251953125,
        -1.1774355173110962,
        1.0
      ],
      "name": "Plane.006"
    },
    {
      "mesh": 7,
      "name": "Plane.006_petals_0"
    },
    {
      "children": [
        20
      ],
      "matrix": [
        55.53869280059414,
        12.701164420175411,
        -88.35299334132092,
        0.0,
        -88.25704786629223,
        -7.751092049749503,
        -56.59263794466893,
        0.0,
        -13.351444434192688,
        104.07072226246719,
        6.567944808223959,
        0.0,
        2.9351282119750977,
        530.4763793945313,
        -0.5091966390609741,
        1.0
      ],
      "name": "Plane.007"
    },
    {
      "mesh": 8,
      "name": "Plane.007_petals_0"
    },
    {
      "children": [
        22
      ],
      "matrix": [
        86.47381112103345,
        -10.012358979859833,
        66.81726178319313,
        0.0,
        66.86223951960822,
        -2.911062216765532,
        -86.96823419867418,
        0.0,
        9.707328071661639,
        109.24188242309805,
        3.806490740704048,
        0.0,
        2.9351282119750977,
        530.4763793945313,
        -0.5091966390609741,
        1.0
      ],
      "name": "Plane.008"
    },
    {
      "mesh": 9,
      "name": "Plane.008_petals_0"
    }
  ],
  "scene": 0,
  "scenes": [
    {
      "name": "Sketchfab_Scene",
      "nodes": [
        0
      ]
    }
  ]
}
